<svg width="44" height="25" viewBox="0 0 44 25" fill="none" xmlns="http://www.w3.org/2000/svg">
<path d="M0.516129 24C0.258065 23.7419 0 23.2258 0 22.7097C0 22.1935 0.258065 21.9355 0.516129 21.4194C0.774194 20.9032 1.29032 20.9032 1.80645 20.9032H42.0645C42.5806 20.9032 42.8387 21.1613 43.3548 21.4194C43.871 21.6774 43.871 22.1935 43.871 22.7097C43.871 23.2258 43.6129 23.4839 43.3548 24C43.0968 24.5161 42.3226 24.5161 41.8065 24.5161H1.80645C1.29032 24.5161 0.774194 24.2581 0.516129 24ZM4.90323 3.09677C4.90323 2.06452 5.16129 1.29032 5.67742 0.774193C6.19355 0.258064 6.96774 0 8 0H35.0968C36.129 0 36.9032 0.258064 37.4194 0.774193C37.9355 1.29032 38.7097 2.06452 38.7097 3.09677V22.1935H36.129V3.87097C36.129 3.35484 36.129 3.09677 35.871 2.83871C35.6129 2.58064 35.3548 2.58065 34.8387 2.58065H9.03226C8.51613 2.58065 8.25806 2.58064 8 2.83871C7.74193 3.09677 7.48387 3.35484 7.48387 3.87097V22.1935H4.90323V3.09677Z" fill="#D7C378"/>
</svg>
