<svg width="38" height="41" viewBox="0 0 38 41" fill="none" xmlns="http://www.w3.org/2000/svg">
<path d="M16.7172 17.0871C15.9687 17.2119 15.3449 17.2742 14.7212 17.2742C14.035 17.2742 13.3489 17.2119 12.6627 17.0247C11.9766 16.9 11.2905 16.4634 10.7291 15.902C10.542 15.7148 10.3548 15.6525 10.1677 15.6525C9.98058 15.6525 9.85583 15.8396 9.79345 16.1515C9.73107 16.5881 9.6687 17.0247 9.60632 17.5237C9.54394 18.0228 9.54395 18.4594 9.54395 18.8336C9.54395 20.8921 9.9182 22.701 10.6667 24.2604C11.4152 25.8198 12.538 27.0049 13.9103 27.8782C15.2825 28.7514 16.9043 29.1881 18.7756 29.1881C19.9607 29.1881 20.9588 29.0009 21.7696 28.6267C22.5805 28.2524 23.2043 27.8158 23.6409 27.3792C23.7657 27.2544 23.8904 27.1297 24.0152 27.0049C24.1399 27.192 24.2647 27.3168 24.3894 27.5039C24.6389 27.8782 24.8261 28.3148 25.0132 28.8138C25.2003 29.3128 25.3874 29.8118 25.5746 30.3732C25.637 30.5603 25.6993 30.6851 25.8865 30.7475C26.0112 30.8098 26.136 30.8722 26.2607 30.8722C26.5726 30.8722 26.8221 30.7475 27.0716 30.498C27.3211 30.2485 27.3835 29.9366 27.3835 29.5623C27.3835 29.1881 27.2587 28.7514 26.9468 28.2524C26.635 27.7534 26.3231 27.2544 25.8865 26.7554C25.4498 26.2564 25.1379 25.8821 24.8884 25.6326C24.1399 24.9465 23.3914 24.5099 22.5182 24.198C21.6449 23.8861 20.834 23.6366 20.0231 23.5118C19.2122 23.3871 18.4013 23.2 17.6528 23.0128C16.9043 22.8257 16.2182 22.5762 15.6568 22.2019C15.0954 21.8277 14.6588 21.3287 14.3469 20.5802C14.2845 20.4554 14.3469 20.3307 14.4093 20.2683C14.534 20.2059 14.6588 20.2059 14.7835 20.3307C15.4073 20.8297 15.9687 21.2039 16.6548 21.4534C17.2786 21.6406 17.9647 21.8277 18.5885 21.8901C19.2746 21.9524 19.9607 22.0148 20.6469 22.1396C21.333 22.2643 22.0191 22.4515 22.7677 22.701C23.4538 23.0128 24.2023 23.4495 24.8884 24.0732C25.0132 24.198 25.1379 24.2604 25.3251 24.198C25.4498 24.1356 25.5746 24.0732 25.5746 23.8861C25.5746 23.7613 25.5746 23.6366 25.637 23.4495C25.637 23.2623 25.637 23.0752 25.637 22.8881C25.637 20.8921 25.0132 19.395 23.7657 18.397C22.5182 17.399 20.8964 16.9 18.9003 16.9C18.1518 16.9624 17.4657 16.9624 16.7172 17.0871Z" fill="#1B1B1B"/>
<path d="M36.3028 16.3385C35.6791 14.4672 34.7434 12.7207 33.5583 11.1613C32.3731 9.60192 31.0009 8.22965 29.4415 7.10688C29.0672 6.795 28.6306 6.67025 28.194 6.795C27.7573 6.85737 27.4454 7.10688 27.1959 7.48113C26.9464 7.85539 26.8841 8.22965 27.0088 8.66628C27.1336 9.10291 27.3831 9.41479 27.7573 9.66429C29.0672 10.5999 30.19 11.7227 31.1256 12.9702C32.0613 14.2801 32.8098 15.7148 33.3712 17.2742C33.9325 18.8336 34.182 20.5177 34.182 22.2019C34.182 24.385 33.8078 26.3811 32.9969 28.2523C32.186 30.1236 31.0632 31.8078 29.691 33.18C28.2563 34.6147 26.6346 35.7375 24.7633 36.486C22.892 37.2345 20.8336 37.6711 18.7128 37.6711C16.592 37.6711 14.5336 37.2969 12.6623 36.486C10.791 35.6751 9.16927 34.5523 7.73462 33.18C6.29998 31.7454 5.17721 30.1236 4.4287 28.2523C3.68018 26.3811 3.1188 24.385 3.1188 22.2642C3.1188 20.1435 3.49306 18.0851 4.30394 16.2138C5.11483 14.3425 6.2376 12.6583 7.60987 11.2861C9.04452 9.85142 10.6663 8.72865 12.5376 7.98014C13.3485 7.60589 14.2217 7.35638 15.095 7.16925V9.78905C15.095 10.4128 15.2821 10.8494 15.6564 10.9742C16.0306 11.0989 16.4673 11.0366 16.9663 10.6623L22.7672 6.54549C23.2039 6.29599 23.391 5.92173 23.391 5.54748C23.391 5.17322 23.2039 4.79897 22.7672 4.48709L16.9663 0.370269C16.4673 -0.00398689 16.0306 -0.0663629 15.594 0.0583891C15.1574 0.183141 15.0326 0.619773 15.0326 1.30591V3.86333C13.7851 4.11283 12.5376 4.48709 11.3524 4.98609C9.1069 5.98411 7.11086 7.29401 5.42671 9.04053C3.74256 10.7871 2.43266 12.7831 1.43465 15.0286C0.436632 17.2742 0 19.7068 0 22.2642C0 24.8217 0.499008 27.192 1.43465 29.4375C2.43266 31.683 3.74256 33.6791 5.48909 35.3632C7.23562 37.0474 9.16927 38.4196 11.4148 39.4177C13.6603 40.4157 16.0306 40.8523 18.588 40.8523C21.1455 40.8523 23.5158 40.3533 25.7613 39.4177C28.0068 38.4196 30.0029 37.1097 31.687 35.3632C33.4335 33.6791 34.7434 31.683 35.7415 29.4375C36.7395 27.192 37.1761 24.7593 37.1761 22.2642C37.3008 20.2058 36.9266 18.2098 36.3028 16.3385Z" fill="#1B1B1B"/>
</svg>
